<?xml version="1.0" encoding="utf-8"?>
<!-- Generator: Adobe Illustrator 19.1.0, SVG Export Plug-In . SVG Version: 6.00 Build 0)  -->
<svg version="1.1" id="Layer_1" xmlns="http://www.w3.org/2000/svg" xmlns:xlink="http://www.w3.org/1999/xlink" x="0px" y="0px"
	 width="500px" height="250px" viewBox="0 0 500 250" enable-background="new 0 0 500 250" xml:space="preserve">
<rect fill="#2284C0" width="500" height="52"/>
<g>
	<path fill="#FFFFFF" d="M35.1,18.6H39V35h-4.4l-6.8-10.7v10.5h-3.9V18.6h4.5l6.8,10.6V18.6z"/>
	<path fill="#FFFFFF" d="M45.4,29.7c0.1,1.6,1.2,2.5,3.2,2.5c1.3,0,2.7-0.5,4-1.2l0.4,3.1c-1.2,0.6-3,1-4.7,1
		c-4.1,0-6.8-2.3-6.8-6.3c0-4,2.7-6.5,6.6-6.5c3.4,0,5.3,2.1,5.3,5.1c0,0.6-0.1,1.6-0.3,2.1L45.4,29.7L45.4,29.7z M49.6,27.7
		c0-0.1,0-0.2,0-0.2c0-1.4-0.6-2.3-1.8-2.3c-1.4,0-2.2,1.2-2.3,2.6L49.6,27.7z"/>
	<path fill="#FFFFFF" d="M63,34.8L60.6,31l-2.3,3.9H54l4.2-6.2l-4.1-5.9h4.2l2.2,3.5l2.2-3.5H67l-4,5.9l4.2,6.2H63z"/>
	<path fill="#FFFFFF" d="M73.4,35.2c-3,0-4.6-1.2-4.4-4.4l0.2-4.6l-1.8-0.3l0.1-2.5l1.8-0.6l0.1-2.8h3.9l0,2.9h3L76,26h-3.2
		l-0.1,4.3c-0.1,1.1,0.6,1.6,1.6,1.6c0.5,0,1-0.1,1.6-0.3l0.5,3.1C75.4,35.1,74.6,35.2,73.4,35.2z"/>
	<path fill="#FFFFFF" d="M84.5,34.8V18.6h4.1v12.8h6.8v3.5H84.5z"/>
	<path fill="#FFFFFF" d="M101.7,22.7v7.1c0,1.5,0.6,2,1.7,2c0.9,0,1.6-0.4,2.1-0.8v-8.3h4v11.9l-4,0.5c0,0,0-1.8,0-1.8
		c-0.9,1-2.3,1.9-3.9,1.9c-2.4,0-3.8-1.6-3.8-4.2v-8.3H101.7z"/>
	<path fill="#FFFFFF" d="M112.3,34.8V17.7l4-0.5v17.7H112.3z"/>
	<path fill="#FFFFFF" d="M119.1,34.8V17.7l4-0.5v17.7H119.1z"/>
	<path fill="#FFFFFF" d="M132.5,33.4c-0.9,1-1.8,1.8-3.5,1.8c-2.1,0-3.7-1.5-3.7-3.4c0-2.3,1.7-4.1,7.1-4.3v-0.2
		c0-1.3-0.6-1.8-2.1-1.8c-1.2,0-2.7,0.5-4.1,1.2l-0.8-2.9c1.3-0.7,3.3-1.4,5.6-1.4c4.2,0,5.6,1.9,5.5,5.3l0,3.6c0,0.8,0.2,0.9,1,1
		l-0.4,2.9C134.5,35.4,133.2,34.7,132.5,33.4L132.5,33.4z M132.5,29.5c-2.5,0.3-3.4,0.8-3.4,1.8c0,0.8,0.6,1.3,1.5,1.3
		c0.8,0,1.5-0.3,1.9-0.8V29.5z"/>
	<path fill="#FFFFFF" d="M145.8,35.2c-0.8,0-2-0.2-2.7-0.5l-3.8,0.5V17.7l4-0.5c0,0,0,6.7,0,6.8c0.8-0.8,1.9-1.6,3.4-1.6
		c3,0,5.1,2.4,5.1,6.3C151.9,32.7,149.1,35.2,145.8,35.2z M145.3,25.6c-0.9,0-1.5,0.3-2,0.8c0,0,0,5.3,0,5.3
		c0.5,0.3,1.1,0.5,1.8,0.5c1.7,0,2.7-1.4,2.7-3.4C147.9,26.8,147,25.6,145.3,25.6z"/>
	<path fill="#FFFFFF" d="M159.8,35.2c-3.6,0-6.4-2.3-6.4-6.4c0-4.1,2.9-6.5,6.6-6.5c3.6,0,6.4,2.3,6.4,6.4
		C166.4,32.8,163.4,35.2,159.8,35.2z M159.9,25.4c-1.6,0-2.5,1.3-2.5,3.4c0,2.1,0.9,3.4,2.5,3.4s2.5-1.3,2.5-3.4
		C162.4,26.8,161.5,25.4,159.9,25.4z"/>
	<path fill="#FFFFFF" d="M173.4,35.2c-3,0-4.6-1.2-4.4-4.4l0.2-4.6l-1.8-0.3l0.1-2.5l1.8-0.6l0.1-2.8h3.9l0,2.9h3l-0.1,3.1h-3.2
		l-0.1,4.3c-0.1,1.1,0.6,1.6,1.6,1.6c0.5,0,1-0.1,1.6-0.3l0.5,3.1C175.4,35.1,174.7,35.2,173.4,35.2z"/>
	<path fill="#FFFFFF" d="M192.4,30.3c0-1.1-1.2-1.5-3.3-2.1c-2.4-0.6-5.2-1.7-5.2-5c0-3,2.2-5,6.2-5c2.5,0,4.5,0.6,6.1,1.4l-0.8,3.4
		c-1.6-0.9-3.6-1.4-5.3-1.4c-1.4,0-2.1,0.5-2.1,1.4c0,1.1,1.5,1.5,3.4,2c2.5,0.7,5.1,1.8,5.1,4.9s-2.4,5.3-6.7,5.3
		c-2.4,0-4.8-0.6-6.3-1.5l0.8-3.4c1.6,0.9,3.6,1.5,5.6,1.5C191.4,31.8,192.4,31.3,192.4,30.3z"/>
	<path fill="#FFFFFF" d="M202.3,29.7c0.1,1.6,1.2,2.5,3.2,2.5c1.3,0,2.7-0.5,4-1.2l0.4,3.1c-1.2,0.6-3,1-4.7,1
		c-4.1,0-6.8-2.3-6.8-6.3c0-4,2.7-6.5,6.6-6.5c3.4,0,5.3,2.1,5.3,5.1c0,0.6-0.1,1.6-0.3,2.1L202.3,29.7L202.3,29.7z M206.5,27.7
		c0-0.1,0-0.2,0-0.2c0-1.4-0.6-2.3-1.8-2.3c-1.4,0-2.2,1.2-2.3,2.6L206.5,27.7z"/>
	<path fill="#FFFFFF" d="M216.8,35.2c-1.7,0-3.8-0.4-5.1-1.1l0.8-2.9c1.4,0.7,3,1.1,4.4,1.1c1.1,0,1.6-0.4,1.6-1
		c0-0.7-0.7-0.9-2.1-1.2c-2.8-0.5-4.6-1.6-4.6-4c0-2.3,2-3.9,5.3-3.9c1.6,0,3.7,0.5,4.9,1l-0.8,2.9c-1.4-0.7-3-1.1-4.2-1.1
		c-1,0-1.5,0.3-1.5,0.9c0,0.6,0.8,0.9,2.1,1.2c2.9,0.6,4.6,1.6,4.6,4C222.2,33.4,220.3,35.2,216.8,35.2z"/>
	<path fill="#FFFFFF" d="M228.9,35.2c-1.7,0-3.8-0.4-5.1-1.1l0.8-2.9c1.4,0.7,3,1.1,4.4,1.1c1.1,0,1.6-0.4,1.6-1
		c0-0.7-0.7-0.9-2.1-1.2c-2.8-0.5-4.6-1.6-4.6-4c0-2.3,2-3.9,5.3-3.9c1.6,0,3.7,0.5,4.9,1l-0.8,2.9c-1.4-0.7-3-1.1-4.2-1.1
		c-1,0-1.5,0.3-1.5,0.9c0,0.6,0.8,0.9,2.1,1.2c2.9,0.6,4.6,1.6,4.6,4C234.3,33.4,232.4,35.2,228.9,35.2z"/>
	<path fill="#FFFFFF" d="M238.5,21c-1.5,0-2.4-0.8-2.4-2.1c0-1.4,0.9-2.2,2.4-2.2c1.5,0,2.4,0.8,2.4,2.2C240.9,20.3,240,21,238.5,21
		z M236.5,34.8V23l4-0.5v12.4H236.5z"/>
	<path fill="#FFFFFF" d="M249.1,35.2c-3.6,0-6.4-2.3-6.4-6.4c0-4.1,2.9-6.5,6.6-6.5c3.6,0,6.4,2.3,6.4,6.4
		C255.7,32.8,252.7,35.2,249.1,35.2z M249.2,25.4c-1.6,0-2.5,1.3-2.5,3.4c0,2.1,0.9,3.4,2.5,3.4s2.5-1.3,2.5-3.4
		C251.7,26.8,250.8,25.4,249.2,25.4z"/>
	<path fill="#FFFFFF" d="M265.8,34.8v-7.2c0-1.5-0.6-1.9-1.7-1.9c-0.9,0-1.7,0.4-2.2,0.9v8.2h-4V23l4-0.5c0,0,0,1.8,0,2
		c1.1-1.2,2.5-2.1,4.1-2.1c2.4,0,3.8,1.6,3.8,4.2v8.3H265.8z"/>
</g>
<rect y="50" fill="#FFFFFF" width="500" height="200"/>
<text x="190" y="85" fill="#000" width="290" height="160"
	font-family="Helvetica, Arial, sans-serif" font-weight="bold" font-size="1.5em">
Battle for the Body Field
</text>
<text x="190" y="115" fill="#000" width="290" height="160"
	font-family="Helvetica, Arial, sans-serif" font-style="italic" font-size="1.25em">
Jeff Eaton
</text>
<image xlink:href="/img/night-scene/jeff-eaton.jpg"
	x="0" y="0" width="200" height="244" />
</svg>
